<svg width="258" height="62" viewBox="0 0 258 62" fill="none" xmlns="http://www.w3.org/2000/svg">
<rect width="258" height="62" fill="#396039"/>
<path d="M36.1932 40.24C34.9772 40.24 33.8412 40.024 32.7852 39.592C31.7292 39.144 30.8012 38.528 30.0012 37.744C29.2172 36.944 28.6012 36.024 28.1532 34.984C27.7052 33.944 27.4812 32.816 27.4812 31.6C27.4812 30.384 27.7052 29.256 28.1532 28.216C28.6012 27.176 29.2172 26.264 30.0012 25.48C30.8012 24.68 31.7292 24.064 32.7852 23.632C33.8412 23.184 34.9772 22.96 36.1932 22.96C36.9772 22.96 37.7372 23.048 38.4732 23.224C39.2092 23.4 39.8732 23.656 40.4652 23.992C40.6732 24.104 40.8252 24.256 40.9212 24.448C41.0172 24.624 41.0652 24.8 41.0652 24.976C41.0652 25.312 40.9532 25.608 40.7292 25.864C40.5212 26.104 40.2572 26.224 39.9372 26.224C39.8252 26.224 39.7052 26.208 39.5772 26.176C39.4652 26.144 39.3612 26.104 39.2652 26.056C38.8172 25.832 38.3372 25.664 37.8252 25.552C37.3132 25.424 36.7692 25.36 36.1932 25.36C35.0412 25.36 34.0012 25.64 33.0732 26.2C32.1452 26.744 31.4092 27.488 30.8652 28.432C30.3372 29.376 30.0732 30.432 30.0732 31.6C30.0732 32.752 30.3372 33.808 30.8652 34.768C31.4092 35.712 32.1452 36.464 33.0732 37.024C34.0012 37.568 35.0412 37.84 36.1932 37.84C36.7532 37.84 37.3452 37.776 37.9692 37.648C38.5932 37.504 39.1212 37.32 39.5532 37.096L39.3612 37.744V33.184L39.7452 33.52H36.6012C36.2492 33.52 35.9532 33.408 35.7132 33.184C35.4892 32.96 35.3772 32.672 35.3772 32.32C35.3772 31.968 35.4892 31.68 35.7132 31.456C35.9532 31.232 36.2492 31.12 36.6012 31.12H40.7532C41.0892 31.12 41.3692 31.24 41.5932 31.48C41.8332 31.704 41.9532 31.992 41.9532 32.344V37.672C41.9532 37.928 41.8892 38.144 41.7612 38.32C41.6332 38.496 41.4892 38.64 41.3292 38.752C40.6092 39.2 39.8092 39.56 38.9292 39.832C38.0652 40.104 37.1532 40.24 36.1932 40.24ZM50.7202 40.24C49.3922 40.24 48.2402 39.968 47.2642 39.424C46.2882 38.864 45.5282 38.104 44.9842 37.144C44.4562 36.168 44.1922 35.056 44.1922 33.808C44.1922 32.4 44.4722 31.2 45.0322 30.208C45.6082 29.2 46.3522 28.432 47.2642 27.904C48.1762 27.36 49.1442 27.088 50.1682 27.088C50.9522 27.088 51.6962 27.248 52.4002 27.568C53.1042 27.872 53.7282 28.304 54.2722 28.864C54.8322 29.408 55.2722 30.056 55.5922 30.808C55.9122 31.544 56.0802 32.352 56.0962 33.232C56.0802 33.552 55.9522 33.816 55.7122 34.024C55.4722 34.232 55.1922 34.336 54.8722 34.336H45.5362L44.9602 32.296H53.9842L53.5282 32.728V32.128C53.4962 31.568 53.3122 31.08 52.9762 30.664C52.6402 30.232 52.2242 29.904 51.7282 29.68C51.2322 29.44 50.7122 29.32 50.1682 29.32C49.6882 29.32 49.2242 29.4 48.7762 29.56C48.3442 29.704 47.9522 29.944 47.6002 30.28C47.2642 30.616 46.9922 31.064 46.7842 31.624C46.5922 32.168 46.4962 32.848 46.4962 33.664C46.4962 34.544 46.6802 35.312 47.0482 35.968C47.4162 36.624 47.9122 37.136 48.5362 37.504C49.1602 37.856 49.8482 38.032 50.6002 38.032C51.1922 38.032 51.6802 37.976 52.0642 37.864C52.4482 37.736 52.7682 37.584 53.0242 37.408C53.2802 37.232 53.5042 37.064 53.6962 36.904C53.9362 36.76 54.1762 36.688 54.4162 36.688C54.7042 36.688 54.9442 36.792 55.1362 37C55.3282 37.192 55.4242 37.424 55.4242 37.696C55.4242 38.048 55.2482 38.368 54.8962 38.656C54.4642 39.072 53.8642 39.44 53.0962 39.76C52.3442 40.08 51.5522 40.24 50.7202 40.24ZM65.3129 27.088C66.4489 27.088 67.3289 27.328 67.9529 27.808C68.5769 28.272 69.0089 28.904 69.2489 29.704C69.5049 30.488 69.6329 31.368 69.6329 32.344V38.776C69.6329 39.128 69.5129 39.424 69.2729 39.664C69.0489 39.888 68.7689 40 68.4329 40C68.0809 40 67.7929 39.888 67.5689 39.664C67.3449 39.424 67.2329 39.128 67.2329 38.776V32.368C67.2329 31.792 67.1529 31.28 66.9929 30.832C66.8329 30.368 66.5529 30 66.1529 29.728C65.7689 29.44 65.2249 29.296 64.5209 29.296C63.8649 29.296 63.2889 29.44 62.7929 29.728C62.2969 30 61.9049 30.368 61.6169 30.832C61.3449 31.28 61.2089 31.792 61.2089 32.368V38.776C61.2089 39.128 61.0889 39.424 60.8489 39.664C60.6249 39.888 60.3449 40 60.0089 40C59.6569 40 59.3689 39.888 59.1449 39.664C58.9209 39.424 58.8089 39.128 58.8089 38.776V28.6C58.8089 28.248 58.9209 27.96 59.1449 27.736C59.3689 27.496 59.6569 27.376 60.0089 27.376C60.3449 27.376 60.6249 27.496 60.8489 27.736C61.0889 27.96 61.2089 28.248 61.2089 28.6V29.944L60.7769 30.184C60.8889 29.832 61.0809 29.48 61.3529 29.128C61.6409 28.76 61.9849 28.424 62.3849 28.12C62.7849 27.8 63.2329 27.552 63.7289 27.376C64.2249 27.184 64.7529 27.088 65.3129 27.088ZM78.8452 40.24C77.5172 40.24 76.3652 39.968 75.3892 39.424C74.4132 38.864 73.6532 38.104 73.1092 37.144C72.5812 36.168 72.3172 35.056 72.3172 33.808C72.3172 32.4 72.5972 31.2 73.1572 30.208C73.7332 29.2 74.4772 28.432 75.3892 27.904C76.3012 27.36 77.2692 27.088 78.2932 27.088C79.0772 27.088 79.8212 27.248 80.5252 27.568C81.2292 27.872 81.8532 28.304 82.3972 28.864C82.9572 29.408 83.3972 30.056 83.7172 30.808C84.0372 31.544 84.2052 32.352 84.2212 33.232C84.2052 33.552 84.0772 33.816 83.8372 34.024C83.5972 34.232 83.3172 34.336 82.9972 34.336H73.6612L73.0852 32.296H82.1092L81.6532 32.728V32.128C81.6212 31.568 81.4372 31.08 81.1012 30.664C80.7652 30.232 80.3492 29.904 79.8532 29.68C79.3572 29.44 78.8372 29.32 78.2932 29.32C77.8132 29.32 77.3492 29.4 76.9012 29.56C76.4692 29.704 76.0772 29.944 75.7252 30.28C75.3892 30.616 75.1172 31.064 74.9092 31.624C74.7172 32.168 74.6212 32.848 74.6212 33.664C74.6212 34.544 74.8052 35.312 75.1732 35.968C75.5412 36.624 76.0372 37.136 76.6612 37.504C77.2852 37.856 77.9732 38.032 78.7252 38.032C79.3172 38.032 79.8052 37.976 80.1892 37.864C80.5732 37.736 80.8932 37.584 81.1492 37.408C81.4052 37.232 81.6292 37.064 81.8212 36.904C82.0612 36.76 82.3012 36.688 82.5412 36.688C82.8292 36.688 83.0692 36.792 83.2612 37C83.4532 37.192 83.5492 37.424 83.5492 37.696C83.5492 38.048 83.3732 38.368 83.0212 38.656C82.5892 39.072 81.9892 39.44 81.2212 39.76C80.4692 40.08 79.6772 40.24 78.8452 40.24ZM88.1339 40C87.7819 40 87.4939 39.888 87.2699 39.664C87.0459 39.424 86.9339 39.128 86.9339 38.776V28.6C86.9339 28.248 87.0459 27.96 87.2699 27.736C87.4939 27.496 87.7819 27.376 88.1339 27.376C88.4699 27.376 88.7499 27.496 88.9739 27.736C89.2139 27.96 89.3339 28.248 89.3339 28.6V31.288L89.0939 30.256C89.2219 29.808 89.4139 29.392 89.6699 29.008C89.9419 28.624 90.2619 28.288 90.6299 28C90.9979 27.712 91.4059 27.488 91.8539 27.328C92.3179 27.168 92.7979 27.088 93.2939 27.088C93.7099 27.088 94.0699 27.2 94.3739 27.424C94.6779 27.648 94.8299 27.928 94.8299 28.264C94.8299 28.696 94.7179 29.016 94.4939 29.224C94.2699 29.416 94.0219 29.512 93.7499 29.512C93.5099 29.512 93.2779 29.464 93.0539 29.368C92.8299 29.256 92.5659 29.2 92.2619 29.2C91.9259 29.2 91.5819 29.288 91.2299 29.464C90.8779 29.64 90.5579 29.904 90.2699 30.256C89.9819 30.592 89.7499 30.992 89.5739 31.456C89.4139 31.92 89.3339 32.44 89.3339 33.016V38.776C89.3339 39.128 89.2139 39.424 88.9739 39.664C88.7499 39.888 88.4699 40 88.1339 40ZM107.028 27.184C107.38 27.184 107.668 27.304 107.892 27.544C108.116 27.768 108.228 28.056 108.228 28.408V38.776C108.228 39.128 108.116 39.424 107.892 39.664C107.668 39.888 107.38 40 107.028 40C106.692 40 106.404 39.888 106.164 39.664C105.94 39.424 105.828 39.128 105.828 38.776V37.048L106.332 37.12C106.332 37.408 106.212 37.728 105.972 38.08C105.748 38.432 105.436 38.776 105.036 39.112C104.636 39.432 104.164 39.704 103.62 39.928C103.076 40.136 102.492 40.24 101.868 40.24C100.764 40.24 99.7719 39.96 98.8919 39.4C98.0119 38.824 97.3159 38.04 96.8039 37.048C96.2919 36.056 96.0359 34.928 96.0359 33.664C96.0359 32.368 96.2919 31.232 96.8039 30.256C97.3159 29.264 98.0039 28.488 98.8679 27.928C99.7479 27.368 100.724 27.088 101.796 27.088C102.484 27.088 103.116 27.2 103.692 27.424C104.284 27.648 104.796 27.936 105.228 28.288C105.66 28.64 105.988 29.016 106.212 29.416C106.452 29.8 106.572 30.168 106.572 30.52L105.828 30.592V28.408C105.828 28.072 105.94 27.784 106.164 27.544C106.404 27.304 106.692 27.184 107.028 27.184ZM102.132 38.032C102.884 38.032 103.548 37.84 104.124 37.456C104.7 37.072 105.148 36.552 105.468 35.896C105.788 35.224 105.948 34.48 105.948 33.664C105.948 32.832 105.788 32.088 105.468 31.432C105.148 30.776 104.7 30.256 104.124 29.872C103.548 29.488 102.884 29.296 102.132 29.296C101.396 29.296 100.74 29.488 100.164 29.872C99.6039 30.256 99.1559 30.776 98.8199 31.432C98.4999 32.088 98.3399 32.832 98.3399 33.664C98.3399 34.48 98.4999 35.224 98.8199 35.896C99.1559 36.552 99.6039 37.072 100.164 37.456C100.74 37.84 101.396 38.032 102.132 38.032ZM111.422 27.52H117.062C117.382 27.52 117.646 27.632 117.854 27.856C118.078 28.064 118.19 28.328 118.19 28.648C118.19 28.952 118.078 29.208 117.854 29.416C117.646 29.624 117.382 29.728 117.062 29.728H111.422C111.102 29.728 110.83 29.624 110.606 29.416C110.398 29.192 110.294 28.928 110.294 28.624C110.294 28.304 110.398 28.04 110.606 27.832C110.83 27.624 111.102 27.52 111.422 27.52ZM113.942 24.4C114.294 24.4 114.582 24.52 114.806 24.76C115.03 24.984 115.142 25.272 115.142 25.624V36.76C115.142 37.048 115.19 37.28 115.286 37.456C115.382 37.632 115.51 37.752 115.67 37.816C115.846 37.88 116.022 37.912 116.198 37.912C116.374 37.912 116.526 37.88 116.654 37.816C116.798 37.752 116.966 37.72 117.158 37.72C117.35 37.72 117.526 37.808 117.686 37.984C117.846 38.16 117.926 38.4 117.926 38.704C117.926 39.088 117.718 39.4 117.302 39.64C116.886 39.88 116.438 40 115.958 40C115.686 40 115.366 39.976 114.998 39.928C114.63 39.88 114.27 39.76 113.918 39.568C113.582 39.376 113.302 39.072 113.078 38.656C112.854 38.224 112.742 37.624 112.742 36.856V25.624C112.742 25.272 112.854 24.984 113.078 24.76C113.318 24.52 113.606 24.4 113.942 24.4ZM126.611 40.24C125.283 40.24 124.131 39.968 123.155 39.424C122.179 38.864 121.419 38.104 120.875 37.144C120.347 36.168 120.083 35.056 120.083 33.808C120.083 32.4 120.363 31.2 120.923 30.208C121.499 29.2 122.243 28.432 123.155 27.904C124.067 27.36 125.035 27.088 126.059 27.088C126.843 27.088 127.587 27.248 128.291 27.568C128.995 27.872 129.619 28.304 130.163 28.864C130.723 29.408 131.163 30.056 131.483 30.808C131.803 31.544 131.971 32.352 131.987 33.232C131.971 33.552 131.843 33.816 131.603 34.024C131.363 34.232 131.083 34.336 130.763 34.336H121.427L120.851 32.296H129.875L129.419 32.728V32.128C129.387 31.568 129.203 31.08 128.867 30.664C128.531 30.232 128.115 29.904 127.619 29.68C127.123 29.44 126.603 29.32 126.059 29.32C125.579 29.32 125.115 29.4 124.667 29.56C124.235 29.704 123.843 29.944 123.491 30.28C123.155 30.616 122.883 31.064 122.675 31.624C122.483 32.168 122.387 32.848 122.387 33.664C122.387 34.544 122.571 35.312 122.939 35.968C123.307 36.624 123.803 37.136 124.427 37.504C125.051 37.856 125.739 38.032 126.491 38.032C127.083 38.032 127.571 37.976 127.955 37.864C128.339 37.736 128.659 37.584 128.915 37.408C129.171 37.232 129.395 37.064 129.587 36.904C129.827 36.76 130.067 36.688 130.307 36.688C130.595 36.688 130.835 36.792 131.027 37C131.219 37.192 131.315 37.424 131.315 37.696C131.315 38.048 131.139 38.368 130.787 38.656C130.355 39.072 129.755 39.44 128.987 39.76C128.235 40.08 127.443 40.24 126.611 40.24ZM151.723 27.184C152.075 27.184 152.363 27.304 152.587 27.544C152.811 27.768 152.923 28.056 152.923 28.408V38.776C152.923 39.128 152.811 39.424 152.587 39.664C152.363 39.888 152.075 40 151.723 40C151.387 40 151.099 39.888 150.859 39.664C150.635 39.424 150.523 39.128 150.523 38.776V37.048L151.027 37.12C151.027 37.408 150.907 37.728 150.667 38.08C150.443 38.432 150.131 38.776 149.731 39.112C149.331 39.432 148.859 39.704 148.315 39.928C147.771 40.136 147.187 40.24 146.563 40.24C145.459 40.24 144.467 39.96 143.587 39.4C142.707 38.824 142.011 38.04 141.499 37.048C140.987 36.056 140.731 34.928 140.731 33.664C140.731 32.368 140.987 31.232 141.499 30.256C142.011 29.264 142.699 28.488 143.563 27.928C144.443 27.368 145.419 27.088 146.491 27.088C147.179 27.088 147.811 27.2 148.387 27.424C148.979 27.648 149.491 27.936 149.923 28.288C150.355 28.64 150.683 29.016 150.907 29.416C151.147 29.8 151.267 30.168 151.267 30.52L150.523 30.592V28.408C150.523 28.072 150.635 27.784 150.859 27.544C151.099 27.304 151.387 27.184 151.723 27.184ZM146.827 38.032C147.579 38.032 148.243 37.84 148.819 37.456C149.395 37.072 149.843 36.552 150.163 35.896C150.483 35.224 150.643 34.48 150.643 33.664C150.643 32.832 150.483 32.088 150.163 31.432C149.843 30.776 149.395 30.256 148.819 29.872C148.243 29.488 147.579 29.296 146.827 29.296C146.091 29.296 145.435 29.488 144.859 29.872C144.299 30.256 143.851 30.776 143.515 31.432C143.195 32.088 143.035 32.832 143.035 33.664C143.035 34.48 143.195 35.224 143.515 35.896C143.851 36.552 144.299 37.072 144.859 37.456C145.435 37.84 146.091 38.032 146.827 38.032ZM164.165 40C163.813 40 163.525 39.888 163.301 39.664C163.077 39.424 162.965 39.128 162.965 38.776V28.6C162.965 28.248 163.077 27.96 163.301 27.736C163.525 27.496 163.813 27.376 164.165 27.376C164.501 27.376 164.781 27.496 165.005 27.736C165.245 27.96 165.365 28.248 165.365 28.6V31.288L165.125 30.256C165.253 29.808 165.445 29.392 165.701 29.008C165.973 28.624 166.293 28.288 166.661 28C167.029 27.712 167.437 27.488 167.885 27.328C168.349 27.168 168.829 27.088 169.325 27.088C169.741 27.088 170.101 27.2 170.405 27.424C170.709 27.648 170.861 27.928 170.861 28.264C170.861 28.696 170.749 29.016 170.525 29.224C170.301 29.416 170.053 29.512 169.781 29.512C169.541 29.512 169.309 29.464 169.085 29.368C168.861 29.256 168.597 29.2 168.293 29.2C167.957 29.2 167.613 29.288 167.261 29.464C166.909 29.64 166.589 29.904 166.301 30.256C166.013 30.592 165.781 30.992 165.605 31.456C165.445 31.92 165.365 32.44 165.365 33.016V38.776C165.365 39.128 165.245 39.424 165.005 39.664C164.781 39.888 164.501 40 164.165 40ZM178.337 40.24C177.009 40.24 175.857 39.968 174.881 39.424C173.905 38.864 173.145 38.104 172.601 37.144C172.073 36.168 171.809 35.056 171.809 33.808C171.809 32.4 172.089 31.2 172.649 30.208C173.225 29.2 173.969 28.432 174.881 27.904C175.793 27.36 176.761 27.088 177.785 27.088C178.569 27.088 179.313 27.248 180.017 27.568C180.721 27.872 181.345 28.304 181.889 28.864C182.449 29.408 182.889 30.056 183.209 30.808C183.529 31.544 183.697 32.352 183.713 33.232C183.697 33.552 183.569 33.816 183.329 34.024C183.089 34.232 182.809 34.336 182.489 34.336H173.153L172.577 32.296H181.601L181.145 32.728V32.128C181.113 31.568 180.929 31.08 180.593 30.664C180.257 30.232 179.841 29.904 179.345 29.68C178.849 29.44 178.329 29.32 177.785 29.32C177.305 29.32 176.841 29.4 176.393 29.56C175.961 29.704 175.569 29.944 175.217 30.28C174.881 30.616 174.609 31.064 174.401 31.624C174.209 32.168 174.113 32.848 174.113 33.664C174.113 34.544 174.297 35.312 174.665 35.968C175.033 36.624 175.529 37.136 176.153 37.504C176.777 37.856 177.465 38.032 178.217 38.032C178.809 38.032 179.297 37.976 179.681 37.864C180.065 37.736 180.385 37.584 180.641 37.408C180.897 37.232 181.121 37.064 181.313 36.904C181.553 36.76 181.793 36.688 182.033 36.688C182.321 36.688 182.561 36.792 182.753 37C182.945 37.192 183.041 37.424 183.041 37.696C183.041 38.048 182.865 38.368 182.513 38.656C182.081 39.072 181.481 39.44 180.713 39.76C179.961 40.08 179.169 40.24 178.337 40.24ZM192.018 27.088C192.882 27.088 193.65 27.184 194.322 27.376C194.994 27.552 195.514 27.808 195.882 28.144C196.266 28.464 196.458 28.84 196.458 29.272C196.458 29.544 196.378 29.8 196.218 30.04C196.058 30.264 195.818 30.376 195.498 30.376C195.274 30.376 195.082 30.336 194.922 30.256C194.778 30.176 194.642 30.08 194.514 29.968C194.386 29.856 194.226 29.744 194.034 29.632C193.858 29.536 193.594 29.456 193.242 29.392C192.906 29.328 192.602 29.296 192.33 29.296C191.482 29.296 190.746 29.488 190.122 29.872C189.514 30.256 189.034 30.776 188.682 31.432C188.346 32.088 188.178 32.832 188.178 33.664C188.178 34.496 188.346 35.24 188.682 35.896C189.034 36.552 189.506 37.072 190.098 37.456C190.706 37.84 191.41 38.032 192.21 38.032C192.69 38.032 193.082 38 193.386 37.936C193.69 37.856 193.954 37.76 194.178 37.648C194.418 37.504 194.618 37.36 194.778 37.216C194.954 37.056 195.194 36.976 195.498 36.976C195.85 36.976 196.114 37.088 196.29 37.312C196.482 37.52 196.578 37.784 196.578 38.104C196.578 38.456 196.362 38.8 195.93 39.136C195.514 39.456 194.954 39.72 194.25 39.928C193.546 40.136 192.77 40.24 191.922 40.24C190.674 40.24 189.586 39.952 188.658 39.376C187.746 38.8 187.034 38.016 186.522 37.024C186.026 36.032 185.778 34.912 185.778 33.664C185.778 32.4 186.042 31.28 186.57 30.304C187.098 29.312 187.834 28.528 188.778 27.952C189.722 27.376 190.802 27.088 192.018 27.088ZM201.127 38.776C201.127 39.128 201.015 39.424 200.791 39.664C200.567 39.888 200.279 40 199.927 40C199.591 40 199.303 39.888 199.063 39.664C198.839 39.424 198.727 39.128 198.727 38.776V28.504C198.727 28.152 198.839 27.864 199.063 27.64C199.303 27.4 199.591 27.28 199.927 27.28C200.279 27.28 200.567 27.4 200.791 27.64C201.015 27.864 201.127 28.152 201.127 28.504V38.776ZM199.903 25.696C199.439 25.696 199.103 25.616 198.895 25.456C198.687 25.28 198.583 24.992 198.583 24.592V24.208C198.583 23.808 198.695 23.528 198.919 23.368C199.143 23.208 199.479 23.128 199.927 23.128C200.407 23.128 200.751 23.216 200.959 23.392C201.167 23.552 201.271 23.824 201.271 24.208V24.592C201.271 25.008 201.159 25.296 200.935 25.456C200.727 25.616 200.383 25.696 199.903 25.696ZM210.716 27.16C211.836 27.16 212.828 27.44 213.692 28C214.572 28.56 215.268 29.328 215.78 30.304C216.292 31.264 216.548 32.384 216.548 33.664C216.548 34.944 216.292 36.08 215.78 37.072C215.268 38.048 214.58 38.816 213.716 39.376C212.852 39.936 211.876 40.216 210.788 40.216C210.18 40.216 209.604 40.12 209.06 39.928C208.516 39.736 208.036 39.488 207.62 39.184C207.204 38.864 206.86 38.528 206.588 38.176C206.332 37.824 206.172 37.496 206.108 37.192L206.756 36.88V43.576C206.756 43.928 206.636 44.216 206.396 44.44C206.172 44.68 205.892 44.8 205.556 44.8C205.204 44.8 204.916 44.68 204.692 44.44C204.468 44.216 204.356 43.928 204.356 43.576V28.552C204.356 28.216 204.468 27.928 204.692 27.688C204.916 27.448 205.204 27.328 205.556 27.328C205.892 27.328 206.172 27.448 206.396 27.688C206.636 27.928 206.756 28.216 206.756 28.552V30.208L206.372 29.992C206.42 29.688 206.572 29.376 206.828 29.056C207.084 28.72 207.404 28.408 207.788 28.12C208.188 27.832 208.636 27.6 209.132 27.424C209.644 27.248 210.172 27.16 210.716 27.16ZM210.452 29.368C209.684 29.368 209.012 29.56 208.436 29.944C207.876 30.312 207.436 30.816 207.116 31.456C206.796 32.096 206.636 32.832 206.636 33.664C206.636 34.48 206.796 35.224 207.116 35.896C207.436 36.552 207.876 37.072 208.436 37.456C209.012 37.824 209.684 38.008 210.452 38.008C211.204 38.008 211.86 37.824 212.42 37.456C212.98 37.072 213.42 36.552 213.74 35.896C214.076 35.224 214.244 34.48 214.244 33.664C214.244 32.848 214.076 32.12 213.74 31.48C213.42 30.824 212.98 30.312 212.42 29.944C211.86 29.56 211.204 29.368 210.452 29.368ZM225.142 40.24C223.814 40.24 222.662 39.968 221.686 39.424C220.71 38.864 219.95 38.104 219.406 37.144C218.878 36.168 218.614 35.056 218.614 33.808C218.614 32.4 218.894 31.2 219.454 30.208C220.03 29.2 220.774 28.432 221.686 27.904C222.598 27.36 223.566 27.088 224.59 27.088C225.374 27.088 226.118 27.248 226.822 27.568C227.526 27.872 228.15 28.304 228.694 28.864C229.254 29.408 229.694 30.056 230.014 30.808C230.334 31.544 230.502 32.352 230.518 33.232C230.502 33.552 230.374 33.816 230.134 34.024C229.894 34.232 229.614 34.336 229.294 34.336H219.958L219.382 32.296H228.406L227.95 32.728V32.128C227.918 31.568 227.734 31.08 227.398 30.664C227.062 30.232 226.646 29.904 226.15 29.68C225.654 29.44 225.134 29.32 224.59 29.32C224.11 29.32 223.646 29.4 223.198 29.56C222.766 29.704 222.374 29.944 222.022 30.28C221.686 30.616 221.414 31.064 221.206 31.624C221.014 32.168 220.918 32.848 220.918 33.664C220.918 34.544 221.102 35.312 221.47 35.968C221.838 36.624 222.334 37.136 222.958 37.504C223.582 37.856 224.27 38.032 225.022 38.032C225.614 38.032 226.102 37.976 226.486 37.864C226.87 37.736 227.19 37.584 227.446 37.408C227.702 37.232 227.926 37.064 228.118 36.904C228.358 36.76 228.598 36.688 228.838 36.688C229.126 36.688 229.366 36.792 229.558 37C229.75 37.192 229.846 37.424 229.846 37.696C229.846 38.048 229.67 38.368 229.318 38.656C228.886 39.072 228.286 39.44 227.518 39.76C226.766 40.08 225.974 40.24 225.142 40.24Z" fill="#FAF0E6"/>
</svg>
